<svg xmlns="http://www.w3.org/2000/svg" viewBox="0 0 512 512">
  <defs>
    <linearGradient id="grad1" x1="0%" y1="0%" x2="100%" y2="100%">
      <stop offset="0%" style="stop-color:#6366f1;stop-opacity:1" />
      <stop offset="100%" style="stop-color:#a855f7;stop-opacity:1" />
    </linearGradient>
    <linearGradient id="grad2" x1="0%" y1="0%" x2="100%" y2="100%">
      <stop offset="0%" style="stop-color:#818cf8;stop-opacity:1" />
      <stop offset="100%" style="stop-color:#c084fc;stop-opacity:1" />
    </linearGradient>
  </defs>
  
  <!-- Background circle -->
  <circle cx="256" cy="256" r="240" fill="url(#grad1)"/>
  
  <!-- Inner circle highlight -->
  <circle cx="256" cy="256" r="200" fill="url(#grad2)" opacity="0.3"/>
  
  <!-- Translation icon -->
  <g fill="white">
    <!-- Letter A (left) -->
    <path d="M140 340 L180 220 L200 220 L240 340 L220 340 L210 310 L170 310 L160 340 Z M175 290 L205 290 L190 245 Z"/>
    
    <!-- Globe/World lines -->
    <ellipse cx="320" cy="280" rx="70" ry="70" fill="none" stroke="white" stroke-width="12"/>
    <path d="M320 210 Q350 280 320 350" fill="none" stroke="white" stroke-width="8"/>
    <path d="M320 210 Q290 280 320 350" fill="none" stroke="white" stroke-width="8"/>
    <line x1="255" y1="280" x2="385" y2="280" stroke="white" stroke-width="8"/>
    <line x1="270" y1="240" x2="370" y2="240" stroke="white" stroke-width="6"/>
    <line x1="270" y1="320" x2="370" y2="320" stroke="white" stroke-width="6"/>
    
    <!-- Arrow connecting -->
    <path d="M240 260 L270 260 L260 245 M270 260 L260 275" fill="none" stroke="white" stroke-width="10" stroke-linecap="round" stroke-linejoin="round"/>
  </g>
  
  <!-- Hi text at bottom -->
  <text x="256" y="420" font-family="Arial, sans-serif" font-size="48" font-weight="bold" fill="white" text-anchor="middle">Hi!</text>
</svg>
